<svg width="22" height="22" viewBox="0 0 22 22" fill="none" xmlns="http://www.w3.org/2000/svg">
<path d="M12.5371 2.10875C12.7377 2.14222 12.9717 2.1757 13.1722 2.20917L11.4674 6.96223L9.12742 13.4893L14.5094 9.17141L18.4873 5.95806C19.4567 7.39737 19.9916 9.07099 20.025 10.845C20.1253 15.8324 16.1474 19.983 11.1666 20.0834C10.5983 20.1168 10.03 20.0499 9.49513 19.9495C5.21633 19.2466 2.04065 15.5311 1.97379 11.1797C1.94036 6.19237 5.91831 2.04181 10.8991 1.94139C11.4005 1.94139 11.9688 2.00833 12.5371 2.10875ZM12.838 0.167361C12.1694 0.0334723 11.5008 0 10.7988 0C4.74833 0.100417 -0.0987561 5.15473 0.00152852 11.2132C0.101813 16.5688 4.04634 20.9871 9.16085 21.8574C9.82942 21.9578 10.498 22.0248 11.2 21.9913C17.3173 21.8909 22.131 16.87 21.9973 10.7781C21.9639 7.79904 20.727 5.15473 18.7547 3.21334L13.2725 7.63168L15.6459 1.03764C14.7768 0.635971 13.8408 0.334723 12.838 0.167361Z" fill="#141414"/>
</svg>
